<svg width="18" height="18" viewBox="0 0 18 18" fill="none" xmlns="http://www.w3.org/2000/svg">
<path d="M17.7137 3.25546C17.3138 3.4328 16.8986 3.57271 16.4726 3.674C16.942 3.22794 17.2949 2.67002 17.494 2.04728C17.5509 1.8695 17.3578 1.71577 17.1972 1.81095C16.6046 2.16248 15.9663 2.42619 15.2998 2.59484C15.2612 2.60463 15.2213 2.60959 15.1813 2.60959C15.0599 2.60959 14.9419 2.56452 14.8491 2.48272C14.14 1.85782 13.2281 1.51367 12.2814 1.51367C11.8717 1.51367 11.4581 1.57753 11.052 1.70348C9.79367 2.09376 8.82278 3.1317 8.51817 4.41229C8.40389 4.89262 8.37296 5.37339 8.42614 5.84121C8.43225 5.89497 8.40683 5.93249 8.39117 5.95009C8.36365 5.98094 8.32464 5.99863 8.28413 5.99863C8.27961 5.99863 8.27496 5.99841 8.27035 5.99797C5.51599 5.74207 3.03223 4.4151 1.27658 2.26153C1.18705 2.15168 1.01537 2.16516 0.944012 2.28755C0.600211 2.87738 0.418523 3.55199 0.418523 4.23846C0.418523 5.29049 0.841187 6.28191 1.57535 7.00467C1.26662 6.93147 0.967798 6.81618 0.69022 6.66201C0.55593 6.5874 0.3907 6.68329 0.388813 6.83689C0.369591 8.39976 1.28461 9.79041 2.65534 10.4166C2.62773 10.4173 2.60013 10.4176 2.57248 10.4176C2.3552 10.4176 2.1352 10.3966 1.91867 10.3552C1.76744 10.3263 1.64039 10.4698 1.68735 10.6164C2.13226 12.0055 3.32824 13.0293 4.75944 13.2618C3.57163 14.0591 2.18839 14.4797 0.74872 14.4797L0.2999 14.4795C0.161616 14.4795 0.0446604 14.5696 0.00942008 14.7036C-0.0252936 14.8355 0.038648 14.9746 0.156569 15.0432C1.77885 15.9874 3.6293 16.4863 5.50866 16.4863C7.15372 16.4863 8.69253 16.1599 10.0824 15.5161C11.3565 14.9258 12.4825 14.0821 13.4289 13.0084C14.3106 12.0081 15 10.8535 15.478 9.57647C15.9337 8.35921 16.1745 7.06036 16.1745 5.82032V5.76125C16.1745 5.56214 16.2645 5.37479 16.4217 5.24726C17.0178 4.7632 17.537 4.19339 17.9647 3.55366C18.0776 3.38474 17.8995 3.17304 17.7137 3.25546Z" fill="#3257A8"/>
</svg>
