<svg width="100" height="100" viewBox="0 0 100 100" fill="none" xmlns="http://www.w3.org/2000/svg">
<circle cx="50" cy="50" r="50" fill="url(#paint0_linear_312_2836)"/>
<path d="M78.5716 49.9999C74.1294 46.6475 57.3702 34.2856 50.0001 34.2856C42.6301 34.2856 25.8709 46.6475 21.4287 49.9999C25.8709 53.3523 42.6301 65.7142 50.0001 65.7142C57.3702 65.7142 74.1294 53.3523 78.5716 49.9999ZM67.3651 45.2856C67.668 44.7618 68.2737 44.6571 68.7785 44.9714L74.8361 49.1618C75.3409 49.4761 75.4418 50.1047 75.139 50.6285C74.6342 51.3618 73.9274 51.0476 73.7255 50.9428L67.668 46.7523C67.1632 46.3333 67.0622 45.7047 67.3651 45.2856ZM32.3323 46.6475L27.6882 49.7904L30.2122 51.0476C30.7169 51.2571 30.9189 51.8856 30.616 52.4095C30.2122 53.2475 29.4045 52.9333 29.3035 52.8285L25.2652 50.7333C24.5584 50.419 24.5584 49.3714 25.1642 48.9523L31.2217 44.7618C31.7265 44.4475 32.3323 44.5523 32.6352 45.0761C32.9381 45.7047 32.8371 46.3333 32.3323 46.6475ZM36.8755 49.9999C36.8755 42.4571 42.7311 36.3809 50.0001 36.3809C57.2692 36.3809 63.1248 42.4571 63.1248 49.9999C63.1248 57.5428 57.2692 63.619 50.0001 63.619C42.7311 63.619 36.8755 57.5428 36.8755 49.9999Z" fill="white"/>
<path d="M61.4284 50.0003C61.4284 43.6627 56.3375 38.5718 49.9999 38.5718C43.6622 38.5718 38.5713 43.6627 38.5713 50.0003C38.5713 56.338 43.6622 61.4289 49.9999 61.4289C56.3375 61.4289 61.4284 56.338 61.4284 50.0003ZM46.883 50.0003C46.883 48.2341 48.2336 46.8835 49.9999 46.8835C51.7661 46.8835 53.1167 48.2341 53.1167 50.0003C53.1167 51.7666 51.7661 53.1172 49.9999 53.1172C48.2336 53.1172 46.883 51.7666 46.883 50.0003Z" fill="white"/>
<path d="M50.0007 30.7377C50.597 30.7377 50.9945 30.3321 50.9945 29.7239V19.5856C50.9945 18.9773 50.597 18.5718 50.0007 18.5718C49.4044 18.5718 49.0069 18.9773 49.0069 19.5856V29.7239C49.0069 30.3321 49.4044 30.7377 50.0007 30.7377ZM34.4976 35.604C34.6963 35.8068 35.2926 36.1109 35.8889 35.604C36.2864 35.2999 36.2864 34.5902 35.8889 34.1847L28.833 26.9865C28.4355 26.581 27.8392 26.581 27.4417 26.9865C27.0442 27.3921 27.0442 28.0003 27.4417 28.4059L34.4976 35.604ZM34.4976 64.3967L27.4417 71.5948C27.0442 72.0004 27.0442 72.6086 27.4417 73.0142C27.6404 73.2169 28.2367 73.5211 28.833 73.0142L35.8889 65.816C36.2864 65.4105 36.2864 64.8022 35.8889 64.3967C35.4914 63.9911 34.8951 63.9911 34.4976 64.3967ZM65.5038 64.3967C65.1063 63.9911 64.51 63.9911 64.1125 64.3967C63.715 64.8022 63.715 65.4105 64.1125 65.816L71.1684 73.0142C71.864 73.5211 72.3609 73.2169 72.5597 73.0142C72.9572 72.6086 72.9572 72.0004 72.5597 71.5948L65.5038 64.3967ZM65.5038 35.604L72.5597 28.4059C72.9572 28.0003 72.9572 27.3921 72.5597 26.9865C72.1622 26.581 71.5659 26.581 71.1684 26.9865L64.1125 34.1847C63.715 34.5902 63.715 35.1985 64.1125 35.604C64.3113 35.8068 64.8081 36.1109 65.5038 35.604ZM50.0007 69.263C49.4044 69.263 49.0069 69.6686 49.0069 70.2768V80.4151C49.0069 81.0234 49.4044 81.4289 50.0007 81.4289C50.597 81.4289 50.9945 81.0234 50.9945 80.4151V70.2768C50.9945 69.6686 50.597 69.263 50.0007 69.263Z" fill="white"/>
<defs>
<linearGradient id="paint0_linear_312_2836" x1="238.81" y1="-116.667" x2="-45.6093" y2="81.0085" gradientUnits="userSpaceOnUse">
<stop stop-color="#37A794"/>
<stop offset="1" stop-color="#3257A8"/>
</linearGradient>
</defs>
</svg>
