<svg width="98" height="71" viewBox="0 0 98 71" fill="none" xmlns="http://www.w3.org/2000/svg">
<path fill-rule="evenodd" clip-rule="evenodd" d="M63.7065 37.8457C60.5096 37.8457 57.9976 40.5061 57.9976 43.8921C57.9976 46.7944 60.0528 49.2129 62.5647 49.6966V62.2864C62.5647 69.542 56.453 68.9126 49.6024 68.9126C42.7519 68.9126 36.3714 68.9126 36.3714 62.2864H34.0879C34.0879 70.9932 41.3818 70.9998 49.6024 70.9998C57.8231 70.9998 64.8483 70.9932 64.8483 62.2864V49.6966C67.3601 49.2129 69.4154 46.7944 69.4154 43.8921C69.4154 40.5061 66.9034 37.8457 63.7065 37.8457ZM60.2812 43.8921C60.2812 45.8269 61.8797 47.5199 63.7065 47.5199C65.5333 47.5199 67.1318 45.8269 67.1318 43.8921C67.1318 41.9572 65.5333 40.2643 63.7065 40.2643C61.8797 40.2643 60.2812 41.9572 60.2812 43.8921Z" fill="#37A794"/>
<path d="M38.1132 44.5778V40.2244L45.6488 33.9361C48.1607 31.7594 49.5308 29.8908 49.5308 26.5049V14.1702C49.5308 13.4446 49.0741 12.9609 48.389 12.9609H43.822C43.1369 12.9609 42.6802 13.4446 42.6802 14.1702C42.6802 14.8958 43.1369 15.3795 43.822 15.3795H47.2472V26.5049C47.2472 29.1653 46.1055 30.5501 44.2787 32.0013L36.9714 38.0477L29.6642 32.0013C27.8374 30.3083 26.6956 27.8897 26.6956 25.4712V15.3795H30.1209C30.8059 15.3795 31.2627 14.8958 31.2627 14.1702C31.2627 13.4446 30.8059 12.9609 30.1209 12.9609H25.5539C24.8688 12.9609 24.4121 13.4446 24.4121 14.1702V26.5049C24.4121 29.8908 25.7822 32.0013 28.2941 33.9361L35.8297 40.2244V44.5778H38.1132Z" fill="#37A794"/>
<path d="M5.09336 58C4.18669 58 3.73336 57.5467 3.73336 56.64V45.26C3.73336 44.3533 4.18669 43.9 5.09336 43.9H8.97336C11.3334 43.9 13.1534 44.5067 14.4334 45.72C15.7267 46.9333 16.3734 48.6733 16.3734 50.94C16.3734 53.1933 15.7267 54.9333 14.4334 56.16C13.1534 57.3867 11.3334 58 8.97336 58H5.09336ZM6.29336 55.88H8.81336C12.0667 55.88 13.6934 54.2333 13.6934 50.94C13.6934 47.66 12.0667 46.02 8.81336 46.02H6.29336V55.88ZM23.1877 58.2C22.1744 58.2 21.2944 57.9933 20.5477 57.58C19.8011 57.1667 19.2211 56.58 18.8077 55.82C18.3944 55.0467 18.1877 54.14 18.1877 53.1C18.1877 52.06 18.3944 51.16 18.8077 50.4C19.2211 49.64 19.8011 49.0533 20.5477 48.64C21.2944 48.2267 22.1744 48.02 23.1877 48.02C24.2011 48.02 25.0811 48.2267 25.8277 48.64C26.5744 49.0533 27.1544 49.64 27.5677 50.4C27.9811 51.16 28.1877 52.06 28.1877 53.1C28.1877 54.14 27.9811 55.0467 27.5677 55.82C27.1544 56.58 26.5744 57.1667 25.8277 57.58C25.0811 57.9933 24.2011 58.2 23.1877 58.2ZM23.1877 56.3C23.9344 56.3 24.5344 56.0333 24.9877 55.5C25.4411 54.9533 25.6677 54.1533 25.6677 53.1C25.6677 52.0333 25.4411 51.24 24.9877 50.72C24.5344 50.1867 23.9344 49.92 23.1877 49.92C22.4411 49.92 21.8411 50.1867 21.3877 50.72C20.9344 51.24 20.7077 52.0333 20.7077 53.1C20.7077 54.1533 20.9344 54.9533 21.3877 55.5C21.8411 56.0333 22.4411 56.3 23.1877 56.3ZM34.7712 58.2C33.7445 58.2 32.8512 57.9933 32.0912 57.58C31.3312 57.1533 30.7445 56.5533 30.3312 55.78C29.9178 55.0067 29.7112 54.1 29.7112 53.06C29.7112 52.02 29.9178 51.1267 30.3312 50.38C30.7445 49.62 31.3312 49.04 32.0912 48.64C32.8512 48.2267 33.7445 48.02 34.7712 48.02C35.2112 48.02 35.6845 48.08 36.1912 48.2C36.7112 48.32 37.1978 48.52 37.6512 48.8C37.9178 48.96 38.0712 49.1667 38.1112 49.42C38.1645 49.6733 38.1312 49.9067 38.0112 50.12C37.9045 50.3333 37.7378 50.4867 37.5112 50.58C37.2978 50.6733 37.0512 50.64 36.7712 50.48C36.1578 50.1333 35.5645 49.96 34.9912 49.96C34.1245 49.96 33.4512 50.2333 32.9712 50.78C32.5045 51.3133 32.2712 52.08 32.2712 53.08C32.2712 54.0667 32.5045 54.8467 32.9712 55.42C33.4512 55.98 34.1245 56.26 34.9912 56.26C35.5645 56.26 36.1578 56.0933 36.7712 55.76C37.0512 55.6 37.2978 55.5667 37.5112 55.66C37.7245 55.7533 37.8778 55.9133 37.9712 56.14C38.0645 56.3533 38.0845 56.5867 38.0312 56.84C37.9778 57.08 37.8245 57.28 37.5712 57.44C37.1312 57.7067 36.6645 57.9 36.1712 58.02C35.6778 58.14 35.2112 58.2 34.7712 58.2ZM40.9648 58.16C40.1381 58.16 39.7248 57.7333 39.7248 56.88V49.32C39.7248 48.48 40.1314 48.06 40.9448 48.06C41.7581 48.06 42.1648 48.48 42.1648 49.32V49.72C42.4581 49.1867 42.8648 48.7733 43.3848 48.48C43.9048 48.1733 44.5048 48.02 45.1848 48.02C46.6514 48.02 47.6114 48.66 48.0648 49.94C48.3714 49.34 48.8114 48.8733 49.3848 48.54C49.9581 48.1933 50.6114 48.02 51.3448 48.02C53.5448 48.02 54.6448 49.36 54.6448 52.04V56.88C54.6448 57.7333 54.2248 58.16 53.3848 58.16C52.5581 58.16 52.1448 57.7333 52.1448 56.88V52.14C52.1448 51.3933 52.0181 50.8467 51.7648 50.5C51.5248 50.1533 51.1114 49.98 50.5248 49.98C49.8714 49.98 49.3581 50.2133 48.9848 50.68C48.6114 51.1333 48.4248 51.7667 48.4248 52.58V56.88C48.4248 57.7333 48.0114 58.16 47.1848 58.16C46.3448 58.16 45.9248 57.7333 45.9248 56.88V52.14C45.9248 51.3933 45.7981 50.8467 45.5448 50.5C45.3048 50.1533 44.8981 49.98 44.3248 49.98C43.6714 49.98 43.1581 50.2133 42.7848 50.68C42.4114 51.1333 42.2248 51.7667 42.2248 52.58V56.88C42.2248 57.7333 41.8048 58.16 40.9648 58.16ZM78.0729 61.8C77.3529 61.8 76.6529 61.7333 75.9729 61.6C75.3062 61.4667 74.6996 61.26 74.1529 60.98C73.8329 60.82 73.6396 60.6133 73.5729 60.36C73.5196 60.12 73.5462 59.8867 73.6529 59.66C73.7596 59.4333 73.9196 59.2667 74.1329 59.16C74.3596 59.0667 74.5996 59.08 74.8529 59.2C75.4396 59.4933 75.9929 59.68 76.5129 59.76C77.0462 59.8533 77.4996 59.9 77.8729 59.9C79.6596 59.9 80.5529 59.04 80.5529 57.32V55.98C80.2729 56.5267 79.8396 56.96 79.2529 57.28C78.6796 57.6 78.0396 57.76 77.3329 57.76C76.4529 57.76 75.6862 57.56 75.0329 57.16C74.3796 56.7467 73.8729 56.1733 73.5129 55.44C73.1529 54.7067 72.9729 53.8533 72.9729 52.88C72.9729 51.9067 73.1529 51.06 73.5129 50.34C73.8729 49.6067 74.3796 49.04 75.0329 48.64C75.6862 48.2267 76.4529 48.02 77.3329 48.02C78.0396 48.02 78.6796 48.1733 79.2529 48.48C79.8262 48.7867 80.2462 49.2067 80.5129 49.74V49.32C80.5129 48.9067 80.6196 48.5933 80.8329 48.38C81.0596 48.1667 81.3662 48.06 81.7529 48.06C82.5796 48.06 82.9929 48.48 82.9929 49.32V57.02C82.9929 58.6067 82.5729 59.8 81.7329 60.6C80.8929 61.4 79.6729 61.8 78.0729 61.8ZM78.0129 55.86C78.7862 55.86 79.3996 55.5933 79.8529 55.06C80.3062 54.5267 80.5329 53.8 80.5329 52.88C80.5329 51.96 80.3062 51.24 79.8529 50.72C79.3996 50.1867 78.7862 49.92 78.0129 49.92C77.2396 49.92 76.6262 50.1867 76.1729 50.72C75.7196 51.24 75.4929 51.96 75.4929 52.88C75.4929 53.8 75.7196 54.5267 76.1729 55.06C76.6262 55.5933 77.2396 55.86 78.0129 55.86ZM90.0432 58.2C89.0299 58.2 88.1499 57.9933 87.4032 57.58C86.6565 57.1667 86.0765 56.58 85.6632 55.82C85.2499 55.0467 85.0432 54.14 85.0432 53.1C85.0432 52.06 85.2499 51.16 85.6632 50.4C86.0765 49.64 86.6565 49.0533 87.4032 48.64C88.1499 48.2267 89.0299 48.02 90.0432 48.02C91.0565 48.02 91.9365 48.2267 92.6832 48.64C93.4299 49.0533 94.0099 49.64 94.4232 50.4C94.8365 51.16 95.0432 52.06 95.0432 53.1C95.0432 54.14 94.8365 55.0467 94.4232 55.82C94.0099 56.58 93.4299 57.1667 92.6832 57.58C91.9365 57.9933 91.0565 58.2 90.0432 58.2ZM90.0432 56.3C90.7899 56.3 91.3899 56.0333 91.8432 55.5C92.2965 54.9533 92.5232 54.1533 92.5232 53.1C92.5232 52.0333 92.2965 51.24 91.8432 50.72C91.3899 50.1867 90.7899 49.92 90.0432 49.92C89.2965 49.92 88.6965 50.1867 88.2432 50.72C87.7899 51.24 87.5632 52.0333 87.5632 53.1C87.5632 54.1533 87.7899 54.9533 88.2432 55.5C88.6965 56.0333 89.2965 56.3 90.0432 56.3Z" fill="#3257A8"/>
<path d="M33.4042 1.03534C33.4042 0.760751 33.5059 0.497408 33.687 0.303244C33.868 0.10908 34.1136 0 34.3697 0H39.3042C39.5603 0 39.8058 0.10908 39.9869 0.303244C40.1679 0.497408 40.2697 0.760751 40.2697 1.03534V4.60151H43.5951C43.8512 4.60151 44.0967 4.71059 44.2778 4.90476C44.4589 5.09892 44.5606 5.36227 44.5606 5.63686V10.9286C44.5606 11.2032 44.4589 11.4665 44.2778 11.6607C44.0967 11.8549 43.8512 11.9639 43.5951 11.9639H40.2697V15.5301C40.2697 15.8047 40.1679 16.068 39.9869 16.2622C39.8058 16.4564 39.5603 16.5655 39.3042 16.5655H34.3697C34.1136 16.5655 33.868 16.4564 33.687 16.2622C33.5059 16.068 33.4042 15.8047 33.4042 15.5301V11.9639H30.0787C29.8227 11.9639 29.5771 11.8549 29.3961 11.6607C29.215 11.4665 29.1133 11.2032 29.1133 10.9286V5.63686C29.1133 5.36227 29.215 5.09892 29.3961 4.90476C29.5771 4.71059 29.8227 4.60151 30.0787 4.60151H33.4042V1.03534Z" fill="#37A794"/>
</svg>
