<svg width="100" height="100" viewBox="0 0 100 100" fill="none" xmlns="http://www.w3.org/2000/svg">
<path fill-rule="evenodd" clip-rule="evenodd" d="M50 0C36.7392 0 24.0215 5.26784 14.6447 14.6447C5.26784 24.0215 0 36.7392 0 50C0 63.2608 5.26784 75.9785 14.6447 85.3553C24.0215 94.7322 36.7392 100 50 100C63.2608 100 75.9785 94.7322 85.3553 85.3553C94.7322 75.9785 100 63.2608 100 50C100 36.7392 94.7322 24.0215 85.3553 14.6447C75.9785 5.26784 63.2608 0 50 0V0ZM76.0905 18.75C76.3008 18.7598 76.5031 18.8331 76.6709 18.9602C76.8387 19.0874 76.964 19.2623 77.0304 19.4621L77.9053 22.0947L80.5379 22.9696C80.7064 23.0257 80.8578 23.124 80.9776 23.2552C81.0974 23.3863 81.1817 23.5459 81.2224 23.7187C81.2632 23.8916 81.2591 24.072 81.2105 24.2429C81.1619 24.4137 81.0705 24.5693 80.9448 24.6948L74.6948 30.9448C74.5581 31.0817 74.3859 31.1779 74.1976 31.2224C74.0093 31.267 73.8123 31.2582 73.6287 31.1971L71.1141 30.3589L64.5711 36.9019C68.7103 41.3941 71.2606 47.3732 71.2606 53.9551C71.2605 67.8674 59.9572 79.1667 46.0449 79.1667C32.1327 79.1667 20.8334 67.8674 20.8333 53.9551C20.8333 40.0426 32.1326 28.7435 46.0449 28.7435C52.6268 28.7435 58.6048 31.2905 63.0981 35.4289L69.6411 28.8859L68.8029 26.3713C68.7418 26.1877 68.733 25.9907 68.7776 25.8024C68.8221 25.6141 68.9183 25.4419 69.0552 25.3052L75.3052 19.0552C75.488 18.8738 75.7315 18.7665 75.9888 18.7541C76.0227 18.7524 76.0566 18.7524 76.0905 18.7541V18.75ZM75.5859 21.7244L70.9839 26.3265L71.6593 28.3488L73.6776 29.0202L78.2796 24.4181L76.7537 23.9095C76.6002 23.8584 76.4607 23.7722 76.3463 23.6578C76.2319 23.5433 76.1457 23.4038 76.0946 23.2503L75.5859 21.7244ZM46.0449 30.8309C33.2585 30.8309 22.9166 41.1727 22.9167 53.9591C22.9167 66.7454 33.2586 77.0874 46.0449 77.0874C58.8313 77.0874 69.1772 66.7454 69.1772 53.9591C69.1773 47.9412 66.8656 42.4824 63.1063 38.3708L60.1237 41.3574C63.2312 44.8201 64.9537 49.3065 64.9617 53.9591C64.9608 58.9755 62.9673 63.7861 59.4198 67.3328C55.8723 70.8796 51.0613 72.872 46.0449 72.8719C41.0285 72.872 36.2175 70.8796 32.67 67.3328C29.1226 63.7861 27.1291 58.9755 27.1281 53.9591C27.128 51.4749 27.6173 49.0151 28.568 46.7199C29.5186 44.4248 30.912 42.3394 32.6686 40.5828C34.4252 38.8262 36.5106 37.4328 38.8057 36.4822C41.1008 35.5315 43.5607 35.0423 46.0449 35.0423C50.6989 35.0494 55.187 36.7719 58.6507 39.8804L61.6333 36.8978C57.5207 33.1395 52.0629 30.8309 46.0449 30.8309ZM46.0449 39.2456C44.1127 39.2455 42.1994 39.626 40.4142 40.3654C38.629 41.1048 37.007 42.1886 35.6407 43.5549C34.2744 44.9212 33.1906 46.5432 32.4512 48.3284C31.7118 50.1136 31.3313 52.0269 31.3314 53.9591C31.3323 57.8608 32.8829 61.6023 35.6421 64.3608C38.4014 67.1192 42.1433 68.6688 46.0449 68.6686C49.9465 68.6688 53.6885 67.1192 56.4477 64.3608C59.207 61.6023 60.7576 57.8608 60.7585 53.9591C60.7565 50.4187 59.478 46.9976 57.1574 44.3237L54.1748 47.3063C55.7123 49.1827 56.5533 51.5333 56.5552 53.9591C56.5544 56.746 55.4467 59.4185 53.4757 61.3887C51.5047 63.3589 48.8318 64.4656 46.0449 64.4653C43.2588 64.4645 40.5869 63.3574 38.6168 61.3873C36.6467 59.4171 35.5395 56.7453 35.5387 53.9591C35.5385 51.1723 36.6451 48.4994 38.6154 46.5284C40.5856 44.5574 43.258 43.4497 46.0449 43.4489C48.4727 43.4509 50.8249 44.2935 52.7018 45.8333L55.6763 42.8589C53.0052 40.5348 49.5856 39.2519 46.0449 39.2456ZM46.0449 47.6522C44.3728 47.6529 42.7694 48.3177 41.5874 49.5005C40.4054 50.6832 39.7416 52.287 39.742 53.9591C39.7427 55.6306 40.407 57.2333 41.5889 58.4152C42.7707 59.5971 44.3735 60.2613 46.0449 60.262C47.717 60.2624 49.3209 59.5986 50.5036 58.4166C51.6864 57.2346 52.3512 55.6313 52.3519 53.9591C52.35 52.6472 51.9389 51.3684 51.1759 50.3011L48.0428 53.4383C48.0872 53.6083 48.1486 53.7758 48.1486 53.9591C48.1486 55.12 47.2057 56.0588 46.0449 56.0588C44.8841 56.0588 43.9453 55.12 43.9453 53.9591C43.9453 52.7983 44.8841 51.8555 46.0449 51.8555C46.2325 51.8555 46.4008 51.9154 46.5739 51.9613L49.703 48.8322C48.6361 48.0677 47.3574 47.6552 46.0449 47.6522Z" fill="url(#paint0_linear_312_2833)"/>
<defs>
<linearGradient id="paint0_linear_312_2833" x1="238.81" y1="-116.667" x2="-45.6093" y2="81.0085" gradientUnits="userSpaceOnUse">
<stop stop-color="#37A794"/>
<stop offset="1" stop-color="#3257A8"/>
</linearGradient>
</defs>
</svg>
